<mxfile host="app.diagrams.net" agent="Mozilla/5.0 (Macintosh; Intel Mac OS X 10_15_7) AppleWebKit/537.36 (KHTML, like Gecko) Chrome/125.0.0.0 Safari/537.36" version="24.7.10">
  <diagram name="第 1 页" id="pk123mcdlqgLAMYyw5vK">
    <mxGraphModel dx="1738" dy="739" grid="0" gridSize="10" guides="1" tooltips="1" connect="1" arrows="1" fold="1" page="0" pageScale="1" pageWidth="1200" pageHeight="1920" math="0" shadow="0">
      <root>
        <mxCell id="0" />
        <mxCell id="1" parent="0" />
        <mxCell id="TAY0rn0z_sBDKMrCpdAW-5" value="" style="edgeStyle=orthogonalEdgeStyle;rounded=0;orthogonalLoop=1;jettySize=auto;html=1;endArrow=diamondThin;endFill=0;dashed=1;" edge="1" parent="1" source="TAY0rn0z_sBDKMrCpdAW-1" target="TAY0rn0z_sBDKMrCpdAW-4">
          <mxGeometry relative="1" as="geometry" />
        </mxCell>
        <mxCell id="TAY0rn0z_sBDKMrCpdAW-1" value="波动变化" style="ellipse;whiteSpace=wrap;html=1;aspect=fixed;" vertex="1" parent="1">
          <mxGeometry x="-162" y="330" width="80" height="80" as="geometry" />
        </mxCell>
        <mxCell id="TAY0rn0z_sBDKMrCpdAW-2" value="LNG RollOver 压力变化" style="text;html=1;align=center;verticalAlign=middle;whiteSpace=wrap;rounded=0;" vertex="1" parent="1">
          <mxGeometry x="-206" y="185" width="171" height="30" as="geometry" />
        </mxCell>
        <mxCell id="TAY0rn0z_sBDKMrCpdAW-7" value="" style="edgeStyle=orthogonalEdgeStyle;rounded=0;orthogonalLoop=1;jettySize=auto;html=1;endArrow=diamondThin;endFill=0;dashed=1;" edge="1" parent="1" source="TAY0rn0z_sBDKMrCpdAW-4" target="TAY0rn0z_sBDKMrCpdAW-6">
          <mxGeometry relative="1" as="geometry" />
        </mxCell>
        <mxCell id="TAY0rn0z_sBDKMrCpdAW-4" value="快速上升" style="ellipse;whiteSpace=wrap;html=1;aspect=fixed;" vertex="1" parent="1">
          <mxGeometry x="-2" y="330" width="80" height="80" as="geometry" />
        </mxCell>
        <mxCell id="TAY0rn0z_sBDKMrCpdAW-9" value="" style="edgeStyle=orthogonalEdgeStyle;rounded=0;orthogonalLoop=1;jettySize=auto;html=1;" edge="1" parent="1" source="TAY0rn0z_sBDKMrCpdAW-6" target="TAY0rn0z_sBDKMrCpdAW-8">
          <mxGeometry relative="1" as="geometry" />
        </mxCell>
        <mxCell id="TAY0rn0z_sBDKMrCpdAW-6" value="超过安全范围" style="ellipse;whiteSpace=wrap;html=1;aspect=fixed;" vertex="1" parent="1">
          <mxGeometry x="158" y="330" width="80" height="80" as="geometry" />
        </mxCell>
        <mxCell id="TAY0rn0z_sBDKMrCpdAW-11" value="" style="edgeStyle=orthogonalEdgeStyle;rounded=0;orthogonalLoop=1;jettySize=auto;html=1;" edge="1" parent="1" source="TAY0rn0z_sBDKMrCpdAW-8" target="TAY0rn0z_sBDKMrCpdAW-10">
          <mxGeometry relative="1" as="geometry" />
        </mxCell>
        <mxCell id="TAY0rn0z_sBDKMrCpdAW-8" value="安全阀打开" style="ellipse;whiteSpace=wrap;html=1;aspect=fixed;" vertex="1" parent="1">
          <mxGeometry x="318" y="330" width="80" height="80" as="geometry" />
        </mxCell>
        <mxCell id="TAY0rn0z_sBDKMrCpdAW-13" value="" style="edgeStyle=orthogonalEdgeStyle;rounded=0;orthogonalLoop=1;jettySize=auto;html=1;endArrow=diamondThin;endFill=0;dashed=1;" edge="1" parent="1" source="TAY0rn0z_sBDKMrCpdAW-10" target="TAY0rn0z_sBDKMrCpdAW-12">
          <mxGeometry relative="1" as="geometry" />
        </mxCell>
        <mxCell id="TAY0rn0z_sBDKMrCpdAW-10" value="弃货量" style="ellipse;whiteSpace=wrap;html=1;aspect=fixed;" vertex="1" parent="1">
          <mxGeometry x="478" y="330" width="80" height="80" as="geometry" />
        </mxCell>
        <mxCell id="TAY0rn0z_sBDKMrCpdAW-15" value="" style="edgeStyle=orthogonalEdgeStyle;rounded=0;orthogonalLoop=1;jettySize=auto;html=1;" edge="1" parent="1" source="TAY0rn0z_sBDKMrCpdAW-12" target="TAY0rn0z_sBDKMrCpdAW-14">
          <mxGeometry relative="1" as="geometry" />
        </mxCell>
        <mxCell id="TAY0rn0z_sBDKMrCpdAW-12" value="安全阀关闭" style="ellipse;whiteSpace=wrap;html=1;aspect=fixed;" vertex="1" parent="1">
          <mxGeometry x="638" y="330" width="80" height="80" as="geometry" />
        </mxCell>
        <mxCell id="TAY0rn0z_sBDKMrCpdAW-14" value="" style="ellipse;whiteSpace=wrap;html=1;aspect=fixed;" vertex="1" parent="1">
          <mxGeometry x="798" y="330" width="80" height="80" as="geometry" />
        </mxCell>
        <mxCell id="TAY0rn0z_sBDKMrCpdAW-16" value="" style="ellipse;whiteSpace=wrap;html=1;aspect=fixed;" vertex="1" parent="1">
          <mxGeometry x="812" y="344" width="52" height="52" as="geometry" />
        </mxCell>
        <mxCell id="TAY0rn0z_sBDKMrCpdAW-17" style="edgeStyle=orthogonalEdgeStyle;rounded=0;orthogonalLoop=1;jettySize=auto;html=1;exitX=0;exitY=0;exitDx=0;exitDy=0;entryX=1;entryY=0;entryDx=0;entryDy=0;curved=1;" edge="1" parent="1" source="TAY0rn0z_sBDKMrCpdAW-1" target="TAY0rn0z_sBDKMrCpdAW-1">
          <mxGeometry relative="1" as="geometry">
            <Array as="points">
              <mxPoint x="-150" y="310" />
              <mxPoint x="-94" y="310" />
            </Array>
          </mxGeometry>
        </mxCell>
        <mxCell id="TAY0rn0z_sBDKMrCpdAW-19" style="edgeStyle=orthogonalEdgeStyle;rounded=0;orthogonalLoop=1;jettySize=auto;html=1;exitX=0;exitY=0;exitDx=0;exitDy=0;entryX=1;entryY=0;entryDx=0;entryDy=0;curved=1;" edge="1" parent="1" source="TAY0rn0z_sBDKMrCpdAW-4" target="TAY0rn0z_sBDKMrCpdAW-4">
          <mxGeometry relative="1" as="geometry">
            <Array as="points">
              <mxPoint x="10" y="310" />
              <mxPoint x="66" y="310" />
            </Array>
          </mxGeometry>
        </mxCell>
        <mxCell id="TAY0rn0z_sBDKMrCpdAW-20" style="edgeStyle=orthogonalEdgeStyle;rounded=0;orthogonalLoop=1;jettySize=auto;html=1;exitX=0;exitY=0;exitDx=0;exitDy=0;entryX=1;entryY=0;entryDx=0;entryDy=0;curved=1;" edge="1" parent="1" source="TAY0rn0z_sBDKMrCpdAW-10" target="TAY0rn0z_sBDKMrCpdAW-10">
          <mxGeometry relative="1" as="geometry">
            <Array as="points">
              <mxPoint x="490" y="310" />
              <mxPoint x="546" y="310" />
            </Array>
          </mxGeometry>
        </mxCell>
      </root>
    </mxGraphModel>
  </diagram>
</mxfile>
